<svg width="48" height="48" viewBox="0 0 48 48" fill="none" xmlns="http://www.w3.org/2000/svg">
<path d="M20.5333 6.53332C23.5999 4.66667 25.9999 4 27.1999 4V12.4C25.8666 11.7333 23.4666 11.6 20.3999 12C16.3013 12.5346 13.4666 9.42222 12.2666 7.73333C13.8222 8.48888 17.3093 8.49573 20.5333 6.53332Z" fill="#38435A"/>
<path d="M27.1997 4H27.9997V24.5333H27.1997V4Z" fill="#CDD7EB"/>
<path fill-rule="evenodd" clip-rule="evenodd" d="M31.8363 11.1996L31.8363 20.0927C31.8363 20.3873 32.0751 20.6261 32.3697 20.6261L35.1058 20.6261C35.4003 20.6261 35.6391 20.3873 35.6391 20.0927L35.6391 11.1996C35.6391 10.905 35.4003 10.6663 35.1058 10.6663L32.3697 10.6663C32.0751 10.6663 31.8363 10.905 31.8363 11.1996ZM30.2363 20.0927C30.2363 21.2709 31.1915 22.2261 32.3697 22.2261L35.1058 22.2261C36.284 22.2261 37.2391 21.2709 37.2391 20.0927L37.2391 11.1996C37.2391 10.0214 36.284 9.06626 35.1058 9.06626L32.3697 9.06626C31.1915 9.06626 30.2363 10.0214 30.2363 11.1996L30.2363 20.0927Z" fill="#38435A"/>
<path d="M41.2024 41.1287H26.5141C24.9753 41.1287 23.7163 39.8969 23.7163 38.3914V17.0679C23.7163 15.5624 24.9753 14.3306 26.5141 14.3306H41.2024C42.7412 14.3306 44.0002 15.5624 44.0002 17.0679V38.3914C44.0002 39.8969 42.7412 41.1287 41.2024 41.1287Z" fill="#CDD7EB"/>
<path fill-rule="evenodd" clip-rule="evenodd" d="M29.5118 18.8218C29.8064 18.8218 30.0452 19.0606 30.0452 19.3551V35.7796C30.0452 36.0741 29.8064 36.3129 29.5118 36.3129C29.2173 36.3129 28.9785 36.0741 28.9785 35.7796V19.3551C28.9785 19.0606 29.2173 18.8218 29.5118 18.8218Z" fill="#5A6783"/>
<path fill-rule="evenodd" clip-rule="evenodd" d="M33.8585 18.8218C34.1531 18.8218 34.3919 19.0606 34.3919 19.3551V35.7796C34.3919 36.0741 34.1531 36.3129 33.8585 36.3129C33.564 36.3129 33.3252 36.0741 33.3252 35.7796V19.3551C33.3252 19.0606 33.564 18.8218 33.8585 18.8218Z" fill="#5A6783"/>
<path fill-rule="evenodd" clip-rule="evenodd" d="M38.2047 18.8218C38.4993 18.8218 38.7381 19.0606 38.7381 19.3551V35.7796C38.7381 36.0741 38.4993 36.3129 38.2047 36.3129C37.9102 36.3129 37.6714 36.0741 37.6714 35.7796V19.3551C37.6714 19.0606 37.9102 18.8218 38.2047 18.8218Z" fill="#5A6783"/>
<path d="M36.7559 41.1289H39.6535V42.9335C39.6535 43.5226 39.176 44.0001 38.5869 44.0001H37.8225C37.2334 44.0001 36.7559 43.5226 36.7559 42.9335V41.1289Z" fill="#38435A"/>
<path d="M28.063 41.1289H30.9607V42.9335C30.9607 43.5226 30.4831 44.0001 29.894 44.0001H29.1297C28.5406 44.0001 28.063 43.5226 28.063 42.9335V41.1289Z" fill="#38435A"/>
<path d="M9.32031 17.8706C9.32031 17.5739 9.56003 17.3335 9.85574 17.3335H11.384C11.6797 17.3335 11.9195 17.5739 11.9195 17.8706V23.7012C11.9195 23.9978 11.6798 24.2383 11.384 24.2383H9.85574C9.56003 24.2383 9.32031 23.9978 9.32031 23.7012V17.8706Z" fill="#38435A"/>
<path d="M5.06689 26.6351C5.06689 23.0758 7.94354 20.1904 11.4921 20.1904H17.3084C20.8569 20.1904 23.7336 23.0758 23.7336 26.6351V41.5832C23.7336 42.9179 22.6548 43.9999 21.3241 43.9999H7.47633C6.14564 43.9999 5.06689 42.9179 5.06689 41.5832V26.6351Z" fill="#5A6783"/>
<path d="M8.13867 32.1009C8.13867 30.9144 9.09755 29.9526 10.2804 29.9526H18.5202C19.703 29.9526 20.6619 30.9144 20.6619 32.1009V39.9473C20.6619 41.1337 19.703 42.0955 18.5202 42.0955H10.2804C9.09755 42.0955 8.13867 41.1337 8.13867 39.9473V32.1009Z" fill="#38435A"/>
<path d="M8.13867 32.1009C8.13867 30.9144 9.09755 29.9526 10.2804 29.9526H18.5202C19.703 29.9526 20.6619 30.9144 20.6619 32.1009V33.7622H8.13867V32.1009Z" fill="#8B94B1"/>
<path d="M11.5096 27.0952C11.2138 27.0952 10.9741 26.8548 10.9741 26.5582L10.9741 25.0132C10.9741 24.7166 11.2138 24.4762 11.5096 24.4762L17.291 24.4762C17.5867 24.4762 17.8264 24.7166 17.8264 25.0132L17.8264 26.5582C17.8264 26.8548 17.5867 27.0952 17.291 27.0952L11.5096 27.0952Z" fill="#8B94B1"/>
<path d="M23.4822 21.6931C22.8929 23.7329 18.0672 24.1303 12.7037 22.5808C7.34024 21.0313 3.46999 18.1216 4.05929 16.0818C4.64858 14.042 9.47427 13.6446 14.8378 15.1941C20.2013 16.7436 24.0715 19.6533 23.4822 21.6931Z" fill="#ECEFF5"/>
<path d="M19.061 18.4376C18.5671 20.1472 15.8517 20.8643 12.9958 20.0393C10.14 19.2142 8.22532 17.1595 8.71922 15.4499C9.21312 13.7403 11.9286 13.0232 14.7844 13.8483C17.6402 14.6733 19.5549 16.728 19.061 18.4376Z" fill="#5A6783"/>
<path d="M19.3332 17.4964C18.8053 19.3236 16.0623 20.136 13.2065 19.311C10.3506 18.486 8.46348 16.3359 8.99136 14.5087C9.51923 12.6815 12.2623 11.8691 15.1181 12.6941C17.9739 13.5191 19.8611 15.6692 19.3332 17.4964Z" fill="#ECEFF5"/>
<g style="mix-blend-mode:color">
<path fill-rule="evenodd" clip-rule="evenodd" d="M20.5333 6.53332C23.6 4.66667 26 4 27.2 4H28V14.3305H30.2359V11.1999C30.2359 10.0217 31.191 9.06655 32.3693 9.06655H35.1054C36.2836 9.06655 37.2387 10.0217 37.2387 11.1999V14.3305H41.2022C42.741 14.3305 44 15.5624 44 17.0679V38.3914C44 39.8969 42.741 41.1287 41.2022 41.1287H39.6535V42.9332C39.6535 43.5223 39.1759 43.9999 38.5868 43.9999H37.8224C37.2333 43.9999 36.7558 43.5223 36.7558 42.9332V41.1287H30.9603V42.9332C30.9603 43.5223 30.4828 43.9999 29.8937 43.9999H29.1293C28.5402 43.9999 28.0626 43.5223 28.0626 42.9332V41.1287H26.5139C25.0798 41.1287 23.8888 40.0588 23.7333 38.6946V41.5831C23.7333 42.9178 22.6546 43.9998 21.3239 43.9998H7.47609C6.1454 43.9998 5.06665 42.9178 5.06665 41.5831V26.635C5.06665 24.1673 6.44943 22.0235 8.48019 20.9407C5.46796 19.4141 3.64118 17.529 4.05929 16.0818C4.42122 14.829 6.38118 14.1957 9.08228 14.2525C9.78264 12.6071 12.3992 11.9085 15.1179 12.6939C17.7282 13.448 19.5292 15.309 19.4166 17.0187C22.2159 18.5106 23.8836 20.3036 23.4822 21.693C23.3497 22.1516 23.0031 22.5272 22.4844 22.8163C23.1817 23.7656 23.6256 24.9137 23.7161 26.1601V17.0679C23.7161 15.5624 24.9751 14.3305 26.5139 14.3305H27.2V12.4C25.8667 11.7333 23.4667 11.6 20.4 12C16.3014 12.5346 13.4667 9.42222 12.2667 7.73333C13.8222 8.48888 17.3094 8.49572 20.5333 6.53332ZM31.8359 14.3305H35.6387V11.1999C35.6387 10.9053 35.3999 10.6665 35.1054 10.6665H32.3693C32.0747 10.6665 31.8359 10.9053 31.8359 11.1999V14.3305Z" fill="#488BF8"/>
</g>
</svg>
